<mxfile modified="2023-07-22T19:18:23.262Z" host="app.diagrams.net" agent="Mozilla/5.0 (Windows NT 10.0; Win64; x64) AppleWebKit/537.36 (KHTML, like Gecko) Chrome/114.0.0.0 Safari/537.36" etag="5KSLct1Xo7nxL-HpET3N" version="21.6.5" type="device">
  <diagram id="Ht1M8jgEwFfnCIfOTk4-" name="Page-1">
    <mxGraphModel dx="1434" dy="1615" grid="1" gridSize="10" guides="1" tooltips="1" connect="1" arrows="1" fold="1" page="1" pageScale="1" pageWidth="1169" pageHeight="827" math="0" shadow="0">
      <root>
        <mxCell id="0" />
        <mxCell id="1" parent="0" />
        <mxCell id="UEzPUAAOIrF-is8g5C7q-175" value="AWS Cloud" style="points=[[0,0],[0.25,0],[0.5,0],[0.75,0],[1,0],[1,0.25],[1,0.5],[1,0.75],[1,1],[0.75,1],[0.5,1],[0.25,1],[0,1],[0,0.75],[0,0.5],[0,0.25]];outlineConnect=0;gradientColor=none;html=1;whiteSpace=wrap;fontSize=12;fontStyle=0;shape=mxgraph.aws4.group;grIcon=mxgraph.aws4.group_aws_cloud_alt;strokeColor=#232F3E;fillColor=none;verticalAlign=top;align=left;spacingLeft=30;fontColor=#232F3E;dashed=0;labelBackgroundColor=#ffffff;container=1;pointerEvents=0;collapsible=0;recursiveResize=0;" parent="1" vertex="1">
          <mxGeometry x="240" y="-789.5" width="690" height="379.5" as="geometry" />
        </mxCell>
        <mxCell id="ZGIyBrX69dTuV-TvzBjl-1" value="" style="sketch=0;points=[[0,0,0],[0.25,0,0],[0.5,0,0],[0.75,0,0],[1,0,0],[0,1,0],[0.25,1,0],[0.5,1,0],[0.75,1,0],[1,1,0],[0,0.25,0],[0,0.5,0],[0,0.75,0],[1,0.25,0],[1,0.5,0],[1,0.75,0]];outlineConnect=0;fontColor=#232F3E;gradientColor=#F78E04;gradientDirection=north;fillColor=#D05C17;strokeColor=#ffffff;dashed=0;verticalLabelPosition=bottom;verticalAlign=top;align=center;html=1;fontSize=12;fontStyle=0;aspect=fixed;shape=mxgraph.aws4.resourceIcon;resIcon=mxgraph.aws4.lambda;" parent="UEzPUAAOIrF-is8g5C7q-175" vertex="1">
          <mxGeometry x="534" y="219.5" width="78" height="78" as="geometry" />
        </mxCell>
        <mxCell id="ZGIyBrX69dTuV-TvzBjl-2" value="&lt;b&gt;tags-b00936916&lt;/b&gt;" style="outlineConnect=0;fontColor=#232F3E;gradientColor=none;fillColor=#277116;strokeColor=none;dashed=0;verticalLabelPosition=bottom;verticalAlign=top;align=center;html=1;fontSize=12;fontStyle=0;aspect=fixed;pointerEvents=1;shape=mxgraph.aws4.bucket;labelBackgroundColor=#ffffff;" parent="UEzPUAAOIrF-is8g5C7q-175" vertex="1">
          <mxGeometry x="534" y="50" width="75" height="78" as="geometry" />
        </mxCell>
        <mxCell id="ZGIyBrX69dTuV-TvzBjl-4" value="&lt;b&gt;extractFeatures&lt;/b&gt;" style="text;html=1;align=center;verticalAlign=middle;resizable=0;points=[];autosize=1;strokeColor=none;fillColor=none;" parent="UEzPUAAOIrF-is8g5C7q-175" vertex="1">
          <mxGeometry x="270" y="128" width="110" height="30" as="geometry" />
        </mxCell>
        <mxCell id="ZGIyBrX69dTuV-TvzBjl-9" value="&lt;b&gt;accessDB&lt;/b&gt;" style="text;html=1;strokeColor=none;fillColor=none;align=center;verticalAlign=middle;whiteSpace=wrap;rounded=0;" parent="UEzPUAAOIrF-is8g5C7q-175" vertex="1">
          <mxGeometry x="543" y="297.5" width="60" height="30" as="geometry" />
        </mxCell>
        <mxCell id="UEzPUAAOIrF-is8g5C7q-177" value="&lt;b&gt;sample-data-b00936916&lt;/b&gt;" style="outlineConnect=0;fontColor=#232F3E;gradientColor=none;fillColor=#277116;strokeColor=none;dashed=0;verticalLabelPosition=bottom;verticalAlign=top;align=center;html=1;fontSize=12;fontStyle=0;aspect=fixed;pointerEvents=1;shape=mxgraph.aws4.bucket;labelBackgroundColor=#ffffff;" parent="UEzPUAAOIrF-is8g5C7q-175" vertex="1">
          <mxGeometry x="36" y="50" width="75" height="78" as="geometry" />
        </mxCell>
        <mxCell id="ZGIyBrX69dTuV-TvzBjl-10" value="&lt;b&gt;PutObject &lt;/b&gt;trigger" style="text;html=1;strokeColor=none;fillColor=none;align=center;verticalAlign=middle;whiteSpace=wrap;rounded=0;" parent="UEzPUAAOIrF-is8g5C7q-175" vertex="1">
          <mxGeometry x="570" y="169.5" width="110" height="30" as="geometry" />
        </mxCell>
        <mxCell id="ZGIyBrX69dTuV-TvzBjl-13" value="&lt;b&gt;PutObject :&amp;nbsp;&lt;/b&gt;trigger" style="text;html=1;strokeColor=none;fillColor=none;align=center;verticalAlign=middle;whiteSpace=wrap;rounded=0;" parent="UEzPUAAOIrF-is8g5C7q-175" vertex="1">
          <mxGeometry x="130" y="59.5" width="110" height="30" as="geometry" />
        </mxCell>
        <mxCell id="ZGIyBrX69dTuV-TvzBjl-17" style="edgeStyle=orthogonalEdgeStyle;rounded=0;orthogonalLoop=1;jettySize=auto;html=1;startArrow=none;startFill=0;endArrow=open;endFill=0;strokeColor=#808080;strokeWidth=2;" parent="UEzPUAAOIrF-is8g5C7q-175" target="ZGIyBrX69dTuV-TvzBjl-1" edge="1">
          <mxGeometry relative="1" as="geometry">
            <mxPoint x="573" y="149.5" as="sourcePoint" />
            <mxPoint x="487" y="329.5" as="targetPoint" />
          </mxGeometry>
        </mxCell>
        <mxCell id="ZGIyBrX69dTuV-TvzBjl-18" value="&lt;b&gt;PutObject &lt;/b&gt;: &amp;lt;file_name&amp;gt;ne.txt" style="text;html=1;strokeColor=none;fillColor=none;align=center;verticalAlign=middle;whiteSpace=wrap;rounded=0;" parent="UEzPUAAOIrF-is8g5C7q-175" vertex="1">
          <mxGeometry x="380" y="50" width="120" height="30" as="geometry" />
        </mxCell>
        <mxCell id="ZGIyBrX69dTuV-TvzBjl-19" value="" style="sketch=0;points=[[0,0,0],[0.25,0,0],[0.5,0,0],[0.75,0,0],[1,0,0],[0,1,0],[0.25,1,0],[0.5,1,0],[0.75,1,0],[1,1,0],[0,0.25,0],[0,0.5,0],[0,0.75,0],[1,0.25,0],[1,0.5,0],[1,0.75,0]];outlineConnect=0;fontColor=#232F3E;gradientColor=#4D72F3;gradientDirection=north;fillColor=#3334B9;strokeColor=#ffffff;dashed=0;verticalLabelPosition=bottom;verticalAlign=top;align=center;html=1;fontSize=12;fontStyle=0;aspect=fixed;shape=mxgraph.aws4.resourceIcon;resIcon=mxgraph.aws4.dynamodb;" parent="UEzPUAAOIrF-is8g5C7q-175" vertex="1">
          <mxGeometry x="230" y="219.5" width="78" height="78" as="geometry" />
        </mxCell>
        <mxCell id="ZGIyBrX69dTuV-TvzBjl-20" style="edgeStyle=orthogonalEdgeStyle;rounded=0;orthogonalLoop=1;jettySize=auto;html=1;startArrow=none;startFill=0;endArrow=open;endFill=0;strokeColor=#808080;strokeWidth=2;entryX=1;entryY=0.5;entryDx=0;entryDy=0;entryPerimeter=0;exitX=0;exitY=0.5;exitDx=0;exitDy=0;exitPerimeter=0;" parent="UEzPUAAOIrF-is8g5C7q-175" source="ZGIyBrX69dTuV-TvzBjl-1" target="ZGIyBrX69dTuV-TvzBjl-19" edge="1">
          <mxGeometry relative="1" as="geometry">
            <mxPoint x="486" y="99" as="sourcePoint" />
            <mxPoint x="591" y="99" as="targetPoint" />
          </mxGeometry>
        </mxCell>
        <mxCell id="ZGIyBrX69dTuV-TvzBjl-21" value="Read JSON contents, create key-value / increment key&#39;s value" style="text;html=1;strokeColor=none;fillColor=none;align=center;verticalAlign=middle;whiteSpace=wrap;rounded=0;" parent="UEzPUAAOIrF-is8g5C7q-175" vertex="1">
          <mxGeometry x="364" y="268" width="110" height="59.5" as="geometry" />
        </mxCell>
        <mxCell id="ZGIyBrX69dTuV-TvzBjl-22" value="&lt;b&gt;Entities&lt;/b&gt;" style="text;html=1;align=center;verticalAlign=middle;resizable=0;points=[];autosize=1;strokeColor=none;fillColor=none;" parent="UEzPUAAOIrF-is8g5C7q-175" vertex="1">
          <mxGeometry x="234" y="297.5" width="70" height="30" as="geometry" />
        </mxCell>
        <mxCell id="ZGIyBrX69dTuV-TvzBjl-5" value="" style="sketch=0;points=[[0,0,0],[0.25,0,0],[0.5,0,0],[0.75,0,0],[1,0,0],[0,1,0],[0.25,1,0],[0.5,1,0],[0.75,1,0],[1,1,0],[0,0.25,0],[0,0.5,0],[0,0.75,0],[1,0.25,0],[1,0.5,0],[1,0.75,0]];outlineConnect=0;fontColor=#232F3E;gradientColor=#F78E04;gradientDirection=north;fillColor=#D05C17;strokeColor=#ffffff;dashed=0;verticalLabelPosition=bottom;verticalAlign=top;align=center;html=1;fontSize=12;fontStyle=0;aspect=fixed;shape=mxgraph.aws4.resourceIcon;resIcon=mxgraph.aws4.lambda;" parent="UEzPUAAOIrF-is8g5C7q-175" vertex="1">
          <mxGeometry x="286" y="50" width="78" height="78" as="geometry" />
        </mxCell>
        <mxCell id="UEzPUAAOIrF-is8g5C7q-195" style="edgeStyle=orthogonalEdgeStyle;rounded=0;orthogonalLoop=1;jettySize=auto;html=1;startArrow=none;startFill=0;endArrow=open;endFill=0;strokeColor=#808080;strokeWidth=2;entryX=0;entryY=0.5;entryDx=0;entryDy=0;entryPerimeter=0;" parent="UEzPUAAOIrF-is8g5C7q-175" source="UEzPUAAOIrF-is8g5C7q-177" target="ZGIyBrX69dTuV-TvzBjl-5" edge="1">
          <mxGeometry relative="1" as="geometry">
            <mxPoint x="189" y="79" as="targetPoint" />
          </mxGeometry>
        </mxCell>
        <mxCell id="ZGIyBrX69dTuV-TvzBjl-16" style="edgeStyle=orthogonalEdgeStyle;rounded=0;orthogonalLoop=1;jettySize=auto;html=1;startArrow=none;startFill=0;endArrow=open;endFill=0;strokeColor=#808080;strokeWidth=2;exitX=1;exitY=0.5;exitDx=0;exitDy=0;exitPerimeter=0;" parent="UEzPUAAOIrF-is8g5C7q-175" source="ZGIyBrX69dTuV-TvzBjl-5" target="ZGIyBrX69dTuV-TvzBjl-2" edge="1">
          <mxGeometry relative="1" as="geometry">
            <mxPoint x="390" y="259.5" as="sourcePoint" />
            <mxPoint x="380" y="89.5" as="targetPoint" />
          </mxGeometry>
        </mxCell>
        <mxCell id="ZGIyBrX69dTuV-TvzBjl-23" value="" style="sketch=0;outlineConnect=0;fontColor=#232F3E;gradientColor=none;fillColor=#232F3D;strokeColor=none;dashed=0;verticalLabelPosition=bottom;verticalAlign=top;align=center;html=1;fontSize=12;fontStyle=0;aspect=fixed;pointerEvents=1;shape=mxgraph.aws4.client;" parent="1" vertex="1">
          <mxGeometry x="32" y="-738.5" width="78" height="76" as="geometry" />
        </mxCell>
        <mxCell id="ZGIyBrX69dTuV-TvzBjl-24" style="edgeStyle=orthogonalEdgeStyle;rounded=0;orthogonalLoop=1;jettySize=auto;html=1;startArrow=none;startFill=0;endArrow=open;endFill=0;strokeColor=#808080;strokeWidth=2;" parent="1" source="ZGIyBrX69dTuV-TvzBjl-23" target="UEzPUAAOIrF-is8g5C7q-177" edge="1">
          <mxGeometry relative="1" as="geometry">
            <mxPoint x="321" y="-690" as="sourcePoint" />
            <mxPoint x="240" y="-692" as="targetPoint" />
          </mxGeometry>
        </mxCell>
        <mxCell id="ZGIyBrX69dTuV-TvzBjl-25" value="&lt;b&gt;My PC&lt;/b&gt;" style="text;html=1;align=center;verticalAlign=middle;resizable=0;points=[];autosize=1;strokeColor=none;fillColor=none;" parent="1" vertex="1">
          <mxGeometry x="41" y="-662.5" width="60" height="30" as="geometry" />
        </mxCell>
        <mxCell id="ZGIyBrX69dTuV-TvzBjl-26" value="&lt;b&gt;PutObject&lt;/b&gt;: add the txt file" style="text;html=1;strokeColor=none;fillColor=none;align=center;verticalAlign=middle;whiteSpace=wrap;rounded=0;" parent="1" vertex="1">
          <mxGeometry x="120" y="-692.5" width="110" height="30" as="geometry" />
        </mxCell>
        <mxCell id="ZGIyBrX69dTuV-TvzBjl-29" value="Upload&#x9;the&#x9;files&#x9;given&#x9;in&#x9;&lt;br&gt;the&#x9;Tech&#x9; folder&#x9;one&#x9;at&#x9;a&#x9;time&#x9;with&#x9;a&#x9;delay&#x9;of&#x9;100&#x9;milliseconds&amp;nbsp;&lt;br&gt;via &lt;b&gt;&lt;font style=&quot;font-size: 20px;&quot;&gt;CLI&lt;/font&gt;&lt;/b&gt;" style="text;html=1;strokeColor=none;fillColor=none;align=center;verticalAlign=middle;whiteSpace=wrap;rounded=0;" parent="1" vertex="1">
          <mxGeometry x="2" y="-632.5" width="138" height="60" as="geometry" />
        </mxCell>
      </root>
    </mxGraphModel>
  </diagram>
</mxfile>
